<svg xmlns="http://www.w3.org/2000/svg" viewBox="0 0 900 220" fill="none">
  <defs>
    <linearGradient id="bg-light" x1="0" y1="0" x2="900" y2="220" gradientUnits="userSpaceOnUse">
      <stop offset="0%" stop-color="#ffffff"/>
      <stop offset="100%" stop-color="#f6f8fa"/>
    </linearGradient>
    <linearGradient id="accent-l" x1="0" y1="0" x2="200" y2="0" gradientUnits="userSpaceOnUse">
      <stop offset="0%" stop-color="#0969da"/>
      <stop offset="100%" stop-color="#1a7f37"/>
    </linearGradient>
  </defs>
  <rect width="900" height="220" rx="12" fill="url(#bg-light)"/>
  <rect width="900" height="220" rx="12" fill="none" stroke="#d0d7de" stroke-width="1"/>
  <rect x="0" y="0" width="900" height="4" rx="2" fill="url(#accent-l)"/>
  <g transform="translate(60, 55)">
    <rect x="0" y="20" width="50" height="55" rx="6" fill="none" stroke="#57606a" stroke-width="2.5"/>
    <path d="M50 35 h12 a10 10 0 0 1 0 25 h-12" fill="none" stroke="#57606a" stroke-width="2.5"/>
    <rect x="-4" y="80" width="58" height="6" rx="3" fill="#57606a" opacity="0.3"/>
    <path d="M15 10 q3-8 0-16" fill="none" stroke="#0969da" stroke-width="2" opacity="0.5"/>
    <path d="M25 12 q3-10 0-18" fill="none" stroke="#0969da" stroke-width="2" opacity="0.4"/>
    <path d="M35 10 q3-8 0-16" fill="none" stroke="#0969da" stroke-width="2" opacity="0.5"/>
  </g>
  <text x="140" y="90" font-family="system-ui, -apple-system, 'Segoe UI', sans-serif" font-size="48" font-weight="700" fill="#1f2328">flat-white</text>
  <text x="140" y="120" font-family="system-ui, -apple-system, 'Segoe UI', sans-serif" font-size="17" fill="#57606a">Australian addresses. Flattened and served.</text>
  <g transform="translate(140, 145)">
    <rect x="0" y="0" width="138" height="28" rx="14" fill="#ddf4ff"/>
    <rect x="0" y="0" width="138" height="28" rx="14" fill="none" stroke="#54aeff" stroke-width="1" opacity="0.5"/>
    <text x="69" y="19" font-family="system-ui, sans-serif" font-size="12" font-weight="600" fill="#0969da" text-anchor="middle">15.9M addresses</text>
    <rect x="150" y="0" width="155" height="28" rx="14" fill="#dafbe1"/>
    <rect x="150" y="0" width="155" height="28" rx="14" fill="none" stroke="#4ac26b" stroke-width="1" opacity="0.5"/>
    <text x="227" y="19" font-family="system-ui, sans-serif" font-size="12" font-weight="600" fill="#1a7f37" text-anchor="middle">boundary enriched</text>
    <rect x="317" y="0" width="85" height="28" rx="14" fill="#dafbe1"/>
    <rect x="317" y="0" width="85" height="28" rx="14" fill="none" stroke="#4ac26b" stroke-width="1" opacity="0.5"/>
    <text x="359" y="19" font-family="system-ui, sans-serif" font-size="12" font-weight="600" fill="#1a7f37" text-anchor="middle">$0/year</text>
    <rect x="414" y="0" width="95" height="28" rx="14" fill="#fff8c5"/>
    <rect x="414" y="0" width="95" height="28" rx="14" fill="none" stroke="#d4a72c" stroke-width="1" opacity="0.5"/>
    <text x="461" y="19" font-family="system-ui, sans-serif" font-size="12" font-weight="600" fill="#9a6700" text-anchor="middle">quarterly</text>
    <rect x="521" y="0" width="95" height="28" rx="14" fill="#ddf4ff"/>
    <rect x="521" y="0" width="95" height="28" rx="14" fill="none" stroke="#54aeff" stroke-width="1" opacity="0.5"/>
    <text x="568" y="19" font-family="system-ui, sans-serif" font-size="12" font-weight="600" fill="#0969da" text-anchor="middle">CC BY 4.0</text>
  </g>
  <rect x="140" y="185" width="70" height="22" rx="11" fill="#f6f8fa" stroke="#d0d7de" stroke-width="1"/>
  <text x="175" y="200" font-family="monospace" font-size="11" fill="#57606a" text-anchor="middle">v0.1.0</text>
</svg>
